<?xml version="1.0" standalone="no"?>
<!DOCTYPE svg PUBLIC "-//W3C//DTD SVG 20010904//EN"
 "http://www.w3.org/TR/2001/REC-SVG-20010904/DTD/svg10.dtd">
<svg version="1.0" xmlns="http://www.w3.org/2000/svg"
 width="768.000000pt" height="768.000000pt" viewBox="0 0 768.000000 768.000000"
 preserveAspectRatio="xMidYMid meet">
<metadata>
Created by potrace 1.10, written by Peter Selinger 2001-2011
</metadata>
<g transform="translate(0.000000,768.000000) scale(0.100000,-0.100000)"
fill="#333333" stroke="none">
<path d="M2214 6875 c-4 -8 -17 -15 -30 -15 -14 0 -27 -7 -30 -15 -4 -8 -15
-15 -26 -15 -26 0 -158 -132 -158 -158 0 -11 -7 -22 -15 -26 -8 -3 -15 -16
-15 -30 0 -13 -7 -26 -15 -30 -13 -5 -15 -52 -15 -341 0 -289 2 -336 15 -341
8 -4 15 -17 15 -30 0 -14 7 -27 15 -30 8 -4 15 -15 15 -26 0 -26 132 -158 158
-158 11 0 22 -7 26 -15 3 -8 16 -15 30 -15 13 0 26 -7 30 -15 5 -13 46 -15
286 -15 l280 0 0 -855 0 -855 -610 0 c-534 0 -611 -2 -616 -15 -4 -8 -17 -15
-30 -15 -14 0 -27 -7 -30 -15 -4 -8 -15 -15 -26 -15 -26 0 -158 -132 -158
-158 0 -11 -7 -22 -15 -26 -8 -3 -15 -16 -15 -30 0 -13 -7 -26 -15 -30 -23 -8
-23 -674 0 -682 8 -4 15 -17 15 -30 0 -14 7 -27 15 -30 8 -4 15 -15 15 -26 0
-26 132 -158 158 -158 11 0 22 -7 26 -15 3 -8 16 -15 30 -15 13 0 26 -7 30
-15 5 -13 127 -15 1021 -15 l1015 0 0 -940 c0 -827 2 -941 15 -946 8 -4 15
-15 15 -26 0 -26 72 -98 98 -98 11 0 22 -7 26 -15 8 -22 194 -22 202 0 4 8 15
15 26 15 26 0 98 72 98 98 0 11 7 22 15 26 13 5 15 119 15 946 l0 940 1000 0
c880 0 1001 2 1006 15 4 8 17 15 30 15 14 0 27 7 30 15 4 8 15 15 26 15 26 0
158 132 158 158 0 11 7 22 15 26 8 3 15 16 15 30 0 13 7 26 15 30 13 5 15 52
15 341 0 289 -2 336 -15 341 -8 4 -15 17 -15 30 0 14 -7 27 -15 30 -8 4 -15
15 -15 26 0 26 -132 158 -158 158 -11 0 -22 7 -26 15 -3 8 -16 15 -30 15 -13
0 -26 7 -30 15 -5 13 -82 15 -616 15 l-610 0 0 855 0 855 280 0 c240 0 281 2
286 15 4 8 17 15 30 15 14 0 27 7 30 15 4 8 15 15 26 15 26 0 158 132 158 158
0 11 7 22 15 26 8 3 15 16 15 30 0 13 7 26 15 30 13 5 15 52 15 341 0 289 -2
336 -15 341 -8 4 -15 17 -15 30 0 14 -7 27 -15 30 -8 4 -15 15 -15 26 0 26
-132 158 -158 158 -11 0 -22 7 -26 15 -3 8 -16 15 -30 15 -13 0 -26 7 -30 15
-5 13 -194 15 -1616 15 -1422 0 -1611 -2 -1616 -15z m1221 -1310 l35 -36 0
-784 0 -784 -35 -36 -36 -35 -94 0 -94 0 -36 35 -35 36 0 784 0 784 33 35 32
34 97 1 97 1 36 -35z"/>
</g>
</svg>
